<svg id="Layer_1" enable-background="new 0 0 512 512" height="512" viewBox="0 0 512 512" width="512" xmlns="http://www.w3.org/2000/svg"><path d="m440.004 276h34v-49h-98v-94h97.89c-1.53-20.69-18.81-37-39.89-37h-386c-22.09 0-40 17.91-40 40v184c0 22.09 17.91 40 40 40h26c0-30.92 25.06-56 56-56 30.93 0 56 25.08 56 56h100c0-30.92 25.06-56 56-56 30.93 0 56 25.08 56 56h36c22.09 0 40-17.91 40-40v-12h-34c-8.84 0-16-7.16-16-16 0-8.85 7.16-16 16-16zm-336.95-49c-21.14 0-36.91-19.47-32.51-40.15l5.86-27.53c3.27-15.35 16.82-26.32 32.51-26.32h31.09v94zm52.95 0v-94h84v94zm100 0v-94h104v94z" fill="#0bc4ff"/><g fill="#2e58ff"><path d="m1.35 194.44c2.402 3.643 7.429 4.679 11.09 2.21 3.649-2.405 4.676-7.437 2.21-11.09-2.735-4.154-8.727-4.804-12.31-1.22-2.619 2.619-3.166 6.868-.99 10.1z"/><path d="m130 296c-32.579 0-59.531 24.475-63.482 56h-18.518c-17.645 0-32-14.355-32-32v-13h23c4.418 0 8-3.582 8-8s-3.582-8-8-8h-23v-14h33c4.418 0 8-3.582 8-8s-3.582-8-8-8h-33v-41.75c0-4.418-3.582-8-8-8s-8 3.582-8 8v100.75c0 26.467 21.533 48 48 48h18.518c3.951 31.525 30.903 56 63.482 56 35.29 0 64-28.71 64-64s-28.71-64-64-64zm0 112c-26.467 0-48-21.533-48-48s21.533-48 48-48 48 21.533 48 48-21.533 48-48 48z"/><path d="m130 344c-8.822 0-16 7.178-16 16s7.178 16 16 16 16-7.178 16-16-7.178-16-16-16z"/><path d="m342 344c-8.822 0-16 7.178-16 16s7.178 16 16 16 16-7.178 16-16-7.178-16-16-16z"/><path d="m304 277h16c4.418 0 8-3.582 8-8s-3.582-8-8-8h-16c-4.418 0-8 3.582-8 8s3.582 8 8 8z"/><path d="m482 153c0-21.658.102-20.581-.26-21.99-2.504-24.131-22.958-43.01-47.74-43.01h-386c-26.467 0-48 21.533-48 48v21c0 4.418 3.582 8 8 8s8-3.582 8-8v-21c0-17.645 14.355-32 32-32h386c13.782 0 25.556 8.758 30.052 21h-355.145c-19.344 0-36.306 13.732-40.331 32.653l-5.858 27.532c-5.464 25.679 14.131 49.815 40.331 49.815h362.951v33h-26c-13.234 0-24 10.766-24 24s10.766 24 24 24h26v4c0 17.645-14.355 32-32 32h-28.518c-3.951-31.525-30.903-56-63.482-56s-59.531 24.475-63.482 56h-56.518c-4.418 0-8 3.582-8 8s3.582 8 8 8h56.518c3.951 31.525 30.903 56 63.482 56s59.531-24.475 63.482-56h28.518c26.467 0 48-21.533 48-48v-151c7.72 0 14 6.28 14 14v21c0 4.418 3.582 8 8 8s8-3.582 8-8v-21c0-16.542-13.458-30-30-30zm-140 255c-26.467 0-48-21.533-48-48s21.533-48 48-48 48 21.533 48 48-21.533 48-48 48zm-86-267h104v78h-104zm-16 78h-84v-78h84zm-161.633-30.485 5.858-27.532c2.464-11.579 12.844-19.983 24.682-19.983h31.093v78h-36.951c-16.065 0-28.018-14.801-24.682-30.485zm361.633 111.485c-4.411 0-8-3.589-8-8s3.589-8 8-8h26v16zm26-81h-90v-78h90v12h-25c-4.418 0-8 3.582-8 8s3.582 8 8 8h25z"/></g></svg>