<?xml version="1.0" encoding="iso-8859-1"?>
<!-- Generator: Adobe Illustrator 19.0.0, SVG Export Plug-In . SVG Version: 6.00 Build 0)  -->
<svg version="1.1" id="Capa_1" xmlns="http://www.w3.org/2000/svg" xmlns:xlink="http://www.w3.org/1999/xlink" x="0px" y="0px"
	 viewBox="0 0 512.005 512.005" style="enable-background:new 0 0 512.005 512.005;" xml:space="preserve">
<g>
	<ellipse style="fill:#756A6B;" cx="90.67" cy="416.751" rx="43.783" ry="43.753"/>
	<ellipse style="fill:#756A6B;" cx="200.89" cy="416.751" rx="43.783" ry="43.753"/>
	<ellipse style="fill:#756A6B;" cx="311.11" cy="416.751" rx="43.783" ry="43.753"/>
	<ellipse style="fill:#756A6B;" cx="421.33" cy="416.751" rx="43.783" ry="43.753"/>
</g>
<polygon style="fill:#060080;" points="512,405.986 0,405.986 0,306.079 256,295.501 512,306.079 "/>
<rect x="481.1" y="306.081" style="fill:#060080;" width="30.905" height="99.91"/>
<path style="fill:#000000;" d="M256,159.16c-2.457,0-4.912-0.671-7.103-2.015l-65.25-40.01c-4.119-2.526-6.579-6.939-6.579-11.804
	c0-4.866,2.459-9.279,6.579-11.805l65.25-40.01c4.381-2.687,9.824-2.687,14.205,0l65.25,40.01c4.119,2.526,6.579,6.939,6.579,11.805
	s-2.459,9.279-6.579,11.804l-65.25,40.01C260.913,158.488,258.456,159.16,256,159.16z M193.078,105.33L256,143.913l62.922-38.583
	L256,66.748L193.078,105.33z M252.82,59.904h0.01H252.82z"/>
<rect x="209.64" y="151.661" style="fill:#060080;" width="92.72" height="46.33"/>
<rect x="271.45" y="151.661" style="fill:#060080;" width="30.905" height="46.33"/>
<path style="fill:#2D86CC;" d="M506.002,429.617H5.998c-3.313,0-5.998-2.685-5.998-5.998v-24.886h512v24.886
	C512,426.931,509.315,429.617,506.002,429.617z"/>
<path style="fill:#266FAB;" d="M481.095,398.732v30.884H506c3.314,0,6-2.684,6-5.996v-24.888H481.095z"/>
<path style="fill:#060080;" d="M487.791,213.426L256,225.002L24.209,213.426V188.54c0-3.313,2.685-5.998,5.998-5.998h451.586
	c3.313,0,5.998,2.685,5.998,5.998V213.426z"/>
<path style="fill:#060080;" d="M456.885,182.541v30.884h30.905v-24.888c0-3.311-2.686-5.996-6-5.996H456.885z"/>
<path style="fill:#FFD359;" d="M30.905,363.849v-22.887c0-2.208,1.79-3.999,3.999-3.999h69.046c2.208,0,3.999,1.79,3.999,3.999
	v22.887c0,2.208-1.79,3.999-3.999,3.999H34.904C32.696,367.848,30.905,366.058,30.905,363.849z"/>
<polygon style="fill:#76D1E3;" points="512,306.079 0,306.079 24.209,213.426 487.791,213.426 "/>
<polygon style="fill:#5AB9CC;" points="487.791,213.426 456.885,213.426 481.095,306.079 512,306.079 "/>
<g>
	<path style="fill:#FFD359;" d="M438.342,347.032h-54.6c-4.142,0-7.5-3.356-7.5-7.495s3.358-7.495,7.5-7.495h54.6
		c4.142,0,7.5,3.356,7.5,7.495C445.842,343.676,442.484,347.032,438.342,347.032z"/>
	<path style="fill:#FFD359;" d="M438.342,375.343h-54.6c-4.142,0-7.5-3.356-7.5-7.495s3.358-7.495,7.5-7.495h54.6
		c4.142,0,7.5,3.356,7.5,7.495C445.842,371.987,442.484,375.343,438.342,375.343z"/>
</g>
<g>
	<rect x="92.39" y="213.431" style="fill:#060080;" width="15" height="92.65"/>
	<rect x="196.21" y="213.431" style="fill:#060080;" width="15" height="92.65"/>
	<rect x="196.59" y="213.431" style="fill:#060080;" width="15" height="92.65"/>
	<rect x="300.41" y="213.431" style="fill:#060080;" width="15" height="92.65"/>
	<rect x="300.79" y="213.431" style="fill:#060080;" width="15" height="92.65"/>
	<rect x="404.61" y="213.431" style="fill:#060080;" width="15" height="92.65"/>
</g>
<g>
</g>
<g>
</g>
<g>
</g>
<g>
</g>
<g>
</g>
<g>
</g>
<g>
</g>
<g>
</g>
<g>
</g>
<g>
</g>
<g>
</g>
<g>
</g>
<g>
</g>
<g>
</g>
<g>
</g>
</svg>
